<svg width="30" height="30" viewBox="0 0 30 30" fill="none" xmlns="http://www.w3.org/2000/svg">
<path d="M14.9939 0C8.36494 0 2.96872 5.39623 2.96872 12.0252C2.96872 12.7799 3.0379 13.5409 3.18256 14.283C3.18885 14.327 3.214 14.4591 3.26432 14.6855C3.44671 15.4969 3.71715 16.2956 4.06935 17.0566C5.36495 20.1069 8.214 24.7925 14.4656 29.8113C14.6228 29.9371 14.8115 30 15.0002 30C15.1888 30 15.3775 29.9371 15.5348 29.8113C21.78 24.7925 24.6354 20.1069 25.931 17.0566C26.2832 16.2956 26.5536 15.5031 26.736 14.6855C26.7863 14.4591 26.8115 14.327 26.8178 14.283C26.9561 13.5409 27.0316 12.7799 27.0316 12.0252C27.019 5.39623 21.6228 0 14.9939 0ZM25.1322 13.9874C25.1322 14 25.1259 14.0126 25.1259 14.0252C25.1197 14.0566 25.1008 14.1509 25.0693 14.2956C25.0693 14.3019 25.0693 14.3019 25.0693 14.3082C24.9121 15.0126 24.6794 15.6981 24.3712 16.3585C24.3649 16.3648 24.3649 16.3774 24.3587 16.3836C23.1826 19.1698 20.6039 23.4214 14.9939 28.0566C9.38381 23.4214 6.8052 19.1698 5.6291 16.3836C5.62281 16.3774 5.62281 16.3648 5.61652 16.3585C5.31463 15.7044 5.08193 15.0126 4.9184 14.3082C4.9184 14.3019 4.9184 14.3019 4.9184 14.2956C4.88067 14.1509 4.86809 14.0566 4.8618 14.0252C4.8618 14.0126 4.85551 14 4.85551 13.9811C4.72973 13.3333 4.66683 12.6792 4.66683 12.0189C4.66683 6.32704 9.30205 1.69182 14.9939 1.69182C20.6857 1.69182 25.3209 6.32704 25.3209 12.0189C25.3209 12.6855 25.258 13.3459 25.1322 13.9874Z" fill="#F2F0F0"/>
<path d="M14.9939 4.522C10.7863 4.522 7.35864 7.94968 7.35864 12.1572C7.35864 16.3648 10.7863 19.7924 14.9939 19.7924C19.2014 19.7924 22.6291 16.3648 22.6291 12.1572C22.6291 7.94968 19.2014 4.522 14.9939 4.522ZM14.9939 18.0943C11.7171 18.0943 9.05675 15.4277 9.05675 12.1572C9.05675 8.88678 11.7234 6.22012 14.9939 6.22012C18.2643 6.22012 20.931 8.88678 20.931 12.1572C20.931 15.4277 18.2706 18.0943 14.9939 18.0943Z" fill="#F2F0F0"/>
</svg>
