<svg width="23" height="13" viewBox="0 0 23 13" fill="none" xmlns="http://www.w3.org/2000/svg">
<path d="M14.1672 11.8502L21.9797 7.16269C22.5898 6.7966 22.5898 6.20316 21.9797 5.83707L14.1672 1.14957C13.557 0.783477 12.568 0.783477 11.9578 1.14957C11.3477 1.51566 11.3477 2.1091 11.9578 2.4752L17.1031 5.56238H2.125C1.26172 5.56238 0.5625 5.98191 0.5625 6.49988C0.5625 7.01785 1.26172 7.43738 2.125 7.43738H17.1031L11.9578 10.5246C11.6531 10.7074 11.5 10.9474 11.5 11.1874C11.5 11.4274 11.6523 11.6674 11.9578 11.8502C12.568 12.2163 13.557 12.2163 14.1672 11.8502Z" fill="#382924"/>
</svg>
