<svg width="40" height="40" viewBox="0 0 40 40" fill="none" xmlns="http://www.w3.org/2000/svg">
<path d="M14.8282 11.6948C10.2165 11.6948 6.46454 15.4467 6.46454 20.0584C6.46454 24.6701 10.2165 28.4221 14.8282 28.4221C19.4399 28.4221 23.1918 24.6701 23.1918 20.0584C23.1918 15.4467 19.44 11.6948 14.8282 11.6948ZM14.8282 27.2099C10.8848 27.2099 7.67666 24.0018 7.67666 20.0584C7.67666 16.1151 10.8848 12.9069 14.8282 12.9069C18.7715 12.9069 21.9797 16.1151 21.9797 20.0584C21.9797 24.0018 18.7716 27.2099 14.8282 27.2099Z" fill="#F2F0F0"/>
<path d="M39.3939 27.8564C39.0592 27.8564 38.7879 28.1278 38.7879 28.4625V31.7352H29.6565V20.3795C29.6565 18.4681 29.3052 16.6045 28.6355 14.8658L29.2203 14.281C29.8148 13.6865 29.9452 12.7521 29.5374 12.0086C27.9945 9.19491 25.6918 6.89212 22.8781 5.34925C22.1346 4.9415 21.2001 5.07192 20.6056 5.66643L20.0679 6.20412C18.4855 5.59136 16.7962 5.25818 15.0584 5.23184C11.0096 5.16954 7.20411 6.71216 4.3431 9.57317C1.48209 12.4342 -0.0596476 16.2396 0.00176651 20.2885C0.061322 24.2152 1.68419 27.8954 4.5713 30.6513C7.43263 33.3825 11.1893 34.8867 15.1494 34.8867H27.7576C28.8047 34.8867 29.6565 34.0348 29.6565 32.9877V32.9473H39.3939C39.7286 32.9473 40 32.676 40 32.3412V28.4625C40 28.1278 39.7286 27.8564 39.3939 27.8564ZM21.4627 6.52348C21.6787 6.30756 22.021 6.26158 22.2953 6.41204C24.9062 7.84372 27.0429 9.98044 28.4746 12.5914C28.625 12.8656 28.5792 13.2079 28.3632 13.4239L28.1164 13.6707C27.4313 12.2648 26.5269 10.9597 25.4212 9.80129C24.1964 8.51814 22.7887 7.48542 21.2582 6.728L21.4627 6.52348ZM28.4444 32.9877C28.4444 33.3665 28.1363 33.6746 27.7576 33.6746H15.1494C7.57736 33.6746 1.32589 27.6613 1.21373 20.2701C1.15732 16.552 2.57308 13.0575 5.20023 10.4303C7.77704 7.8535 11.1879 6.44218 14.8262 6.44218C14.8973 6.44218 14.9688 6.44275 15.04 6.4438C22.4313 6.55596 28.4444 12.8075 28.4444 20.3795V32.9877Z" fill="#F2F0F0"/>
<path d="M18.5057 9.65584C18.9768 9.82239 19.4409 10.0233 19.8853 10.253C19.9743 10.299 20.0694 10.3208 20.1631 10.3208C20.3825 10.3208 20.5943 10.2013 20.7021 9.99289C20.8558 9.69552 20.7393 9.32994 20.4419 9.17625C19.9484 8.92114 19.433 8.69803 18.9098 8.51306C18.5941 8.40146 18.248 8.56687 18.1364 8.88243C18.0248 9.19799 18.1901 9.54425 18.5057 9.65584Z" fill="#F2F0F0"/>
<path d="M22.3099 10.3674C22.0451 10.1627 21.6644 10.2114 21.4597 10.4761C21.255 10.7409 21.3037 11.1215 21.5685 11.3263C22.8862 12.345 23.9733 13.6693 24.7121 15.156C24.818 15.3691 25.0324 15.4925 25.2553 15.4925C25.3459 15.4925 25.4379 15.4722 25.5245 15.4291C25.8242 15.2801 25.9465 14.9164 25.7975 14.6166C24.9776 12.9668 23.7716 11.4975 22.3099 10.3674Z" fill="#F2F0F0"/>
<path d="M19.0056 16.9493C18.7159 17.1168 18.6167 17.4876 18.7842 17.7774C19.1831 18.4674 19.3939 19.2562 19.3939 20.0585C19.3939 22.576 17.3458 24.6242 14.8283 24.6242C12.3108 24.6242 10.2626 22.576 10.2626 20.0585C10.2626 17.541 12.3108 15.4928 14.8283 15.4928C15.8778 15.4928 16.8644 15.8389 17.6813 16.4938C17.9426 16.7032 18.324 16.6611 18.5333 16.4C18.7427 16.1388 18.7007 15.7574 18.4395 15.548C17.4199 14.7308 16.1374 14.2807 14.8283 14.2807C11.6424 14.2807 9.05048 16.8726 9.05048 20.0585C9.05048 23.2444 11.6424 25.8363 14.8283 25.8363C18.0141 25.8363 20.606 23.2444 20.606 20.0585C20.606 19.0435 20.339 18.045 19.8336 17.1708C19.6662 16.8808 19.2954 16.7818 19.0056 16.9493Z" fill="#F2F0F0"/>
</svg>
