<svg width="40" height="40" viewBox="0 0 40 40" fill="none" xmlns="http://www.w3.org/2000/svg">
<path d="M14.8282 11.6948C10.2165 11.6948 6.46455 15.4467 6.46455 20.0585C6.46455 24.6702 10.2165 28.4221 14.8282 28.4221C19.4399 28.4221 23.1918 24.6702 23.1918 20.0585C23.1918 15.4467 19.44 11.6948 14.8282 11.6948ZM14.8282 27.21C10.8848 27.21 7.67667 24.0018 7.67667 20.0585C7.67667 16.1151 10.8848 12.9069 14.8282 12.9069C18.7715 12.9069 21.9797 16.1151 21.9797 20.0585C21.9797 24.0018 18.7716 27.21 14.8282 27.21Z" fill="#C5A862"/>
<path d="M39.3939 27.8563C39.0592 27.8563 38.7879 28.1277 38.7879 28.4624V31.7351H29.6566V20.3794C29.6566 18.468 29.3052 16.6045 28.6356 14.8657L29.2203 14.281C29.8148 13.6865 29.9452 12.752 29.5375 12.0085C27.9945 9.19484 25.6918 6.89205 22.8781 5.34918C22.1346 4.94142 21.2002 5.07185 20.6057 5.66635L20.068 6.20405C18.4855 5.59128 16.7962 5.25811 15.0584 5.23177C11.0096 5.16946 7.20413 6.71209 4.34312 9.5731C1.48211 12.4341 -0.0596247 16.2395 0.0017894 20.2884C0.0613449 24.2151 1.68421 27.8954 4.57132 30.6512C7.43266 33.3825 11.1893 34.8866 15.1494 34.8866H27.7576C28.8047 34.8866 29.6566 34.0347 29.6566 32.9876V32.9472H39.3939C39.7286 32.9472 40 32.6759 40 32.3412V28.4624C40 28.1277 39.7286 27.8563 39.3939 27.8563ZM21.4627 6.5234C21.6787 6.30748 22.021 6.2615 22.2954 6.41197C24.9062 7.84365 27.0429 9.98037 28.4747 12.5913C28.6251 12.8655 28.5792 13.2078 28.3632 13.4238L28.1164 13.6706C27.4314 12.2647 26.527 10.9596 25.4213 9.80122C24.1964 8.51807 22.7887 7.48534 21.2582 6.72793L21.4627 6.5234ZM28.4444 32.9876C28.4444 33.3664 28.1363 33.6745 27.7576 33.6745H15.1494C7.57738 33.6745 1.32591 27.6613 1.21375 20.2701C1.15734 16.5519 2.5731 13.0575 5.20025 10.4302C7.77706 7.85342 11.188 6.44211 14.8262 6.44211C14.8973 6.44211 14.9688 6.44268 15.04 6.44373C22.4313 6.55589 28.4444 12.8074 28.4444 20.3794V32.9876Z" fill="#C5A862"/>
<path d="M18.5057 9.65565C18.9768 9.82219 19.4409 10.0231 19.8854 10.2528C19.9743 10.2988 20.0694 10.3206 20.1632 10.3206C20.3826 10.3206 20.5944 10.2011 20.7021 9.9927C20.8558 9.69533 20.7393 9.32975 20.442 9.17605C19.9485 8.92094 19.433 8.69783 18.9098 8.51286C18.5941 8.40127 18.248 8.56668 18.1364 8.88224C18.0248 9.19779 18.1902 9.54405 18.5057 9.65565Z" fill="#C5A862"/>
<path d="M22.31 10.3673C22.0452 10.1626 21.6645 10.2113 21.4598 10.4761C21.2551 10.7409 21.3037 11.1215 21.5686 11.3262C22.8862 12.3449 23.9733 13.6693 24.7121 15.156C24.8181 15.3691 25.0325 15.4925 25.2553 15.4925C25.3459 15.4925 25.438 15.4721 25.5246 15.429C25.8243 15.28 25.9466 14.9163 25.7976 14.6166C24.9777 12.9667 23.7717 11.4974 22.31 10.3673Z" fill="#C5A862"/>
<path d="M19.0056 16.9494C18.7159 17.1169 18.6167 17.4876 18.7842 17.7774C19.1831 18.4674 19.3939 19.2562 19.3939 20.0585C19.3939 22.576 17.3458 24.6242 14.8283 24.6242C12.3108 24.6242 10.2626 22.576 10.2626 20.0585C10.2626 17.541 12.3108 15.4929 14.8283 15.4929C15.8778 15.4929 16.8644 15.839 17.6813 16.4939C17.9426 16.7032 18.324 16.6611 18.5333 16.4C18.7427 16.1389 18.7007 15.7574 18.4395 15.5481C17.4199 14.7309 16.1374 14.2808 14.8283 14.2808C11.6424 14.2808 9.05048 16.8727 9.05048 20.0585C9.05048 23.2444 11.6424 25.8363 14.8283 25.8363C18.0141 25.8363 20.606 23.2444 20.606 20.0585C20.606 19.0435 20.339 18.045 19.8336 17.1709C19.6662 16.8808 19.2954 16.7819 19.0056 16.9494Z" fill="#C5A862"/>
</svg>
