<?xml version="1.0"?>
<svg xmlns="http://www.w3.org/2000/svg" viewBox="0 0 64 64" fill="#c5a862" width="20" height="20"><g id="Contact_us" data-name="Contact us"><path d="M41,26V25a1,1,0,0,0,1-1V21a10,10,0,0,0-20,0v3a1,1,0,0,0,1,1v1a9,9,0,0,0,5,8.05v1.186l-5.846,1.59A7.03,7.03,0,0,0,17,43.58V50a1,1,0,0,0,1,1H46a1,1,0,0,0,1-1V43.58a7.031,7.031,0,0,0-5.157-6.755L36,35.236V34.05A9,9,0,0,0,41,26ZM24,21a8,8,0,0,1,16,0v1.951a4.969,4.969,0,0,1-3.764-2.715l-.341-.683a1,1,0,0,0-1.6-.26L32.636,20.95A6.954,6.954,0,0,1,27.687,23H24Zm1,5V25h2.687a8.937,8.937,0,0,0,6.363-2.636l.7-.7A6.943,6.943,0,0,0,39,24.787V26a7,7,0,0,1-14,0Zm8,17V40.469l3.6-3,1.4.38v1.734l-6,6-6-6V37.852l1.4-.38,3.6,3V43Zm12,.58V49H19V43.58a5.024,5.024,0,0,1,3.683-4.825L24,38.4V40a1,1,0,0,0,.293.707l7,7a1,1,0,0,0,1.414,0l7-7A1,1,0,0,0,40,40V38.4l1.314.358A5.026,5.026,0,0,1,45,43.58ZM34.349,36.743,32,38.7l-2.349-1.956A.989.989,0,0,0,30,36V34.768a8.737,8.737,0,0,0,4,0V36A.989.989,0,0,0,34.349,36.743Z"/><path d="M36,27H34a2,2,0,0,1-4,0H28a4,4,0,0,0,8,0Z"/><path d="M34.309,5.105l2.4-2.4L35.293,1.293l-4,4a1,1,0,0,0,0,1.414l4,4,1.414-1.414L34.543,7.129a25,25,0,0,1,3.228,49.2l.458,1.946a27,27,0,0,0-3.92-53.172Z"/><path d="M28.707,53.293l-1.414,1.414,2.164,2.164a25,25,0,0,1-3.228-49.2l-.458-1.946A27,27,0,0,0,29.691,58.9l-2.4,2.4,1.414,1.414,4-4a1,1,0,0,0,0-1.414Z"/></g></svg>
