<svg id="Layer_1" height="20" fill="#c5a862" viewBox="0 0 512 512" width="20" xmlns="http://www.w3.org/2000/svg" data-name="Layer 1"><path d="m479 450.714h-14.388v-432.406a8.247 8.247 0 0 0 -8.166-8.308h-397.735a8.248 8.248 0 0 0 -8.167 8.308v432.406h-17.544a8.009 8.009 0 0 0 -8 8v35.286a8.009 8.009 0 0 0 8 8h446a8.009 8.009 0 0 0 8-8v-35.286a8.009 8.009 0 0 0 -8-8zm-220.1 0 2.145-199.074h191.567v199.074zm193.712-211.074h-191.442l2.344-217.64h189.1zm-201.099-217.64-2.345 217.64h-186.624v-217.64zm-188.969 229.64h186.5l-2.144 199.074h-184.356zm412.456 238.36h-438v-27.286h438z"/><path d="m106.974 121.017a6 6 0 0 0 8.354-1.486l45.6-65.307a6 6 0 0 0 -9.84-6.87l-45.6 65.308a6 6 0 0 0 1.486 8.355z"/><path d="m143.354 128.138a6 6 0 0 0 8.282-1.85l25.156-39.63a6 6 0 0 0 -10.131-6.431l-25.156 39.629a6 6 0 0 0 1.849 8.282z"/><path d="m367.756 298.576a6 6 0 0 0 -8.355 1.486l-45.594 65.307a6 6 0 1 0 9.839 6.869l45.595-65.307a6 6 0 0 0 -1.485-8.355z"/><path d="m383.26 331.084a6 6 0 0 0 -8.281 1.85l-25.157 39.629a6 6 0 1 0 10.131 6.437l25.156-39.63a6 6 0 0 0 -1.849-8.286z"/></svg>